# Blender v2.79 (sub 0) OBJ File: 'untitled.blend'
# www.blender.org
o Konar(2)
v -18.683285 0.000000 -12.372769
v -18.683285 0.000000 12.413338
v -22.710033 0.000000 0.020284
v -8.141125 0.000000 -20.032099
v -8.141125 0.000000 20.072666
v 4.889703 0.000000 -20.032099
v 4.889703 0.000000 20.072666
v 15.431865 0.000000 -12.372769
v 15.431865 0.000000 12.413338
v 19.458612 0.000000 0.020284
v -4.516904 223.000000 -4.702862
v -4.516904 223.000000 0.076754
v -5.293400 223.000000 -2.313054
v -2.484012 223.000000 -6.179844
v -2.484012 223.000000 1.553737
v 0.028781 223.000000 -6.179844
v 0.028781 223.000000 1.553737
v 2.061673 223.000000 -4.702862
v 2.061673 223.000000 0.076754
v 2.838169 223.000000 -2.313054
v -8.877124 42.125000 -7.870747
v -4.149467 42.125000 -11.305591
v -10.682928 42.125000 -2.313054
v 6.421893 42.125000 3.244640
v 1.694237 42.125000 6.679483
v -4.149467 42.125000 6.679483
v -8.877124 42.125000 3.244640
v 1.694237 42.125000 -11.305591
v 6.421893 42.125000 -7.870747
v 8.227697 42.125000 -2.313054
vt 0.431141 0.153429
vt 0.598324 0.234418
vt 0.494999 0.212033
vt 0.431141 0.080990
vt 0.701649 0.212033
vt 0.494999 0.022385
vt 0.765508 0.153429
vt 0.598324 0.000000
vt 0.765508 0.080990
vt 0.701649 0.022385
vt 0.692262 0.508630
vt 0.679948 0.483360
vt 0.692262 0.494661
vt 0.679948 0.519931
vt 0.660023 0.479043
vt 0.660023 0.524247
vt 0.640098 0.483360
vt 0.640098 0.519931
vt 0.627784 0.494661
vt 0.627784 0.508630
vt 0.326221 0.996027
vt 0.255106 0.003952
vt 0.303813 0.003160
vt 0.305277 0.996368
vt 0.127553 0.999322
vt 0.180854 0.000000
vt 0.166969 0.997380
vt 0.163906 0.000835
vt 0.053302 0.000000
vt 0.088137 0.998176
vt 0.039416 0.998176
vt 0.074252 0.000000
vt 0.201804 0.000000
vt 0.255106 0.999322
vt 0.215690 0.997380
vt 0.218753 0.000835
vt 0.036353 0.000784
vt 0.000000 1.000000
vt 0.840482 0.105125
vt 0.915455 0.068806
vt 0.886818 0.095087
vt 0.794145 0.095087
vt 0.915455 0.036320
vt 0.765508 0.068806
vt 0.886818 0.010039
vt 0.765508 0.036320
vt 0.840482 0.000000
vt 0.794145 0.010039
vt 0.343125 0.994669
vt 0.343125 0.000000
vt 0.431141 0.993894
vt 0.391832 0.003257
vt 0.431141 0.000000
vt 0.414238 0.995294
vt 0.127553 1.000000
vt 0.091201 0.000784
vt 0.868026 0.472519
vt 0.803464 0.234418
vt 0.912106 0.234418
vt 0.819305 0.472519
vt 0.907442 0.474343
vt 1.000000 0.238486
vt 0.715570 0.238486
vt 0.779889 0.474343
vt 0.606465 0.237035
vt 0.715570 0.473208
vt 0.627677 0.479043
vt 0.645881 0.234418
vt 0.823804 0.716030
vt 0.715570 0.477447
vt 0.824113 0.474343
vt 0.775128 0.717422
vt 0.539724 0.479043
vt 0.490375 0.718856
vt 0.431141 0.481437
vt 0.539070 0.717782
vt 0.557744 0.237035
vt 0.519034 0.479043
vt 0.578560 0.718856
vt 0.627784 0.481437
vt 0.912287 0.477447
vt 0.863346 0.717422
vt 0.518328 0.234418
vt 0.431141 0.473209
vt 0.343125 0.004049
vt 0.393294 0.995635
vn 0.0000 -1.0000 0.0000
vn 0.5875 -0.0283 0.8087
vn 0.9507 -0.0283 0.3089
vn -0.5875 -0.0283 -0.8087
vn 0.5875 -0.0283 -0.8087
vn 0.9507 -0.0283 -0.3089
vn 0.0000 -0.0283 -0.9996
vn 0.0000 -0.0283 0.9996
vn -0.9507 -0.0283 0.3089
vn -0.9507 -0.0283 -0.3089
vn -0.5737 0.2179 -0.7896
vn -0.9217 0.2466 -0.2995
vn 0.0000 0.2029 -0.9792
vn -0.9138 0.2773 0.2969
vn 0.5627 0.2889 0.7745
vn 0.9255 0.2301 -0.3007
vn -0.5610 0.2986 0.7721
vn 0.5750 0.2076 -0.7914
vn 0.9180 0.2613 0.2983
vn 0.0000 0.3030 0.9530
vn -0.5875 -0.0283 0.8087
s off
f 1/1/1 2/2/1 3/3/1
f 2/2/1 1/1/1 4/4/1
f 2/2/1 4/4/1 5/5/1
f 5/5/1 4/4/1 6/6/1
f 5/5/1 6/6/1 7/7/1
f 7/7/1 6/6/1 8/8/1
f 7/7/1 8/8/1 9/9/1
f 9/9/1 8/8/1 10/10/1
f 11/11/1 12/12/1 13/13/1
f 12/12/1 11/11/1 14/14/1
f 12/12/1 14/14/1 15/15/1
f 15/15/1 14/14/1 16/16/1
f 15/15/1 16/16/1 17/17/1
f 17/17/1 16/16/1 18/18/1
f 17/17/1 18/18/1 19/19/1
f 19/19/1 18/18/1 20/20/1
f 14/21/2 21/22/2 22/23/2
f 21/22/2 14/21/2 11/24/2
f 21/25/3 13/26/3 23/27/3
f 13/26/3 21/25/3 11/28/3
f 17/29/4 24/30/4 25/31/4
f 24/30/4 17/29/4 19/32/4
f 12/33/5 26/34/5 27/35/5
f 26/34/5 12/33/5 15/36/5
f 23/27/6 12/33/6 27/35/6
f 12/33/6 23/27/6 13/26/6
f 15/37/7 25/31/7 26/38/7
f 25/31/7 15/37/7 17/29/7
f 21/39/1 27/40/1 23/41/1
f 27/40/1 21/39/1 22/42/1
f 27/40/1 22/42/1 26/43/1
f 26/43/1 22/42/1 28/44/1
f 26/43/1 28/44/1 25/45/1
f 25/45/1 28/44/1 29/46/1
f 25/45/1 29/46/1 24/47/1
f 24/47/1 29/46/1 30/48/1
f 16/49/8 22/23/8 28/50/8
f 22/23/8 16/49/8 14/21/8
f 20/51/9 29/52/9 30/53/9
f 29/52/9 20/51/9 18/54/9
f 19/32/10 30/55/10 24/30/10
f 30/55/10 19/32/10 20/56/10
f 21/57/11 4/58/11 1/59/11
f 4/58/11 21/57/11 22/60/11
f 23/61/12 1/59/12 3/62/12
f 1/59/12 23/61/12 21/57/12
f 22/60/13 6/63/13 4/58/13
f 6/63/13 22/60/13 28/64/13
f 27/65/14 3/66/14 2/67/14
f 3/66/14 27/65/14 23/68/14
f 24/69/15 7/70/15 9/71/15
f 7/70/15 24/69/15 25/72/15
f 8/73/16 30/74/16 10/75/16
f 30/74/16 8/73/16 29/76/16
f 26/77/17 2/67/17 5/78/17
f 2/67/17 26/77/17 27/65/17
f 28/79/18 8/73/18 6/80/18
f 8/73/18 28/79/18 29/76/18
f 10/81/19 24/69/19 9/71/19
f 24/69/19 10/81/19 30/82/19
f 25/83/20 5/78/20 7/84/20
f 5/78/20 25/83/20 26/77/20
f 18/54/21 28/85/21 29/52/21
f 28/85/21 18/54/21 16/86/21
